<svg width="88" height="88" viewBox="0 0 88 88" fill="none" xmlns="http://www.w3.org/2000/svg">
<circle cx="44" cy="44" r="44" fill="#1F1F1F"/>
<path d="M27.296 59H19.712V44.888H15.68V41H19.712V29.288H23.696V41H28.4V44.888H23.696V55.208H27.296V59Z" fill="#F0F0F0"/>
<path d="M54.6541 59H47.5021V58.04C47.5021 57.816 47.5021 57.656 47.5021 57.56C47.5021 57.464 47.5021 57.304 47.5021 57.08C47.4701 57.176 47.3101 57.352 47.0221 57.608C46.7341 57.864 46.3341 58.12 45.8221 58.376C45.2781 58.664 44.6381 58.904 43.9021 59.096C43.1661 59.32 42.3341 59.432 41.4061 59.432C40.0621 59.432 38.7981 59.192 37.6141 58.712C36.4301 58.2 35.4061 57.512 34.5421 56.648C33.6781 55.784 32.9901 54.776 32.4781 53.624C31.9981 52.472 31.7581 51.256 31.7581 49.976C31.7581 48.696 31.9981 47.496 32.4781 46.376C32.9901 45.224 33.6781 44.216 34.5421 43.352C35.4061 42.488 36.4301 41.816 37.6141 41.336C38.7981 40.824 40.0621 40.568 41.4061 40.568C42.2061 40.568 42.9581 40.68 43.6621 40.904C44.3981 41.128 45.0381 41.384 45.5821 41.672C46.1261 41.96 46.5101 42.2 46.7341 42.392C46.9581 42.552 47.1021 42.68 47.1661 42.776C47.1021 42.52 47.0541 42.2 47.0221 41.816C47.0221 41.4 47.0221 41.08 47.0221 40.856V26.792H43.8541V23H51.0061V55.208H54.6541V59ZM41.4061 44.456C40.5741 44.456 39.8061 44.6 39.1021 44.888C38.3981 45.176 37.7901 45.56 37.2781 46.04C36.8301 46.552 36.4621 47.144 36.1741 47.816C35.9181 48.456 35.7901 49.176 35.7901 49.976C35.7901 50.808 35.9501 51.592 36.2701 52.328C36.5901 53.064 37.0221 53.672 37.5661 54.152C38.0461 54.6 38.6061 54.952 39.2461 55.208C39.9181 55.432 40.6381 55.544 41.4061 55.544C42.1741 55.544 42.8781 55.432 43.5181 55.208C44.1581 54.952 44.7341 54.6 45.2461 54.152C45.7901 53.672 46.2221 53.064 46.5421 52.328C46.8621 51.592 47.0221 50.808 47.0221 49.976C47.0221 49.08 46.8461 48.264 46.4941 47.528C46.1741 46.792 45.7261 46.184 45.1501 45.704C44.6701 45.32 44.1101 45.016 43.4701 44.792C42.8301 44.568 42.1421 44.456 41.4061 44.456Z" fill="#F0F0F0"/>
<path d="M69.6241 59H62.0401V44.888H58.0081V41H62.0401V29.288H66.0241V41H70.7281V44.888H66.0241V55.208H69.6241V59Z" fill="#F0F0F0"/>
</svg>
